<?xml version="1.0" encoding="UTF-8"?>
<svg version="1.1" xmlns="http://www.w3.org/2000/svg" width="512" height="512">
<path d="M0 0 C168.96 0 337.92 0 512 0 C512 168.96 512 337.92 512 512 C343.04 512 174.08 512 0 512 C0 343.04 0 174.08 0 0 Z " fill="#000000" transform="translate(0,0)"/>
<path d="M0 0 C12.08795939 -0.5129373 23.74380208 -0.61963061 35.5625 2.25 C36.41094482 2.45455811 37.25938965 2.65911621 38.13354492 2.86987305 C43.31024871 4.24392037 47.43866394 6.20734527 52 9 C54.26985894 9.76040572 54.26985894 9.76040572 56 10 C56 10.66 56 11.32 56 12 C56.721875 12.0825 57.44375 12.165 58.1875 12.25 C61.61041028 13.16277607 63.28695163 14.73912635 66 17 C68.29551993 18.41373357 70.63551948 19.70185383 73 21 C73 21.66 73 22.32 73 23 C73.78375 23.2475 74.5675 23.495 75.375 23.75 C78.43941457 25.20924503 78.61725761 26.05014956 80 29 C80.66 29.33 81.32 29.66 82 30 C84.49016793 31.24508396 84.98686718 32.46716796 86 35 C86.66 35 87.32 35 88 35 C88 35.66 88 36.32 88 37 C88.66 37 89.32 37 90 37 C90.33 38.65 90.66 40.3 91 42 C91.99 42.33 92.98 42.66 94 43 C94 44.32 94 45.64 94 47 C94.99 47.33 95.98 47.66 97 48 C98.46118749 50.32876757 99.75613031 52.56256417 101 55 C101.49371094 55.92296875 101.98742187 56.8459375 102.49609375 57.796875 C104.08490854 61.18084417 105.09287035 64.45484961 106.0625 68.0625 C107.33729781 72.85831904 107.33729781 72.85831904 109.11328125 77.4765625 C110.29343628 80.83506537 110.19131524 83.76463488 110.125 87.3125 C110.10695313 88.56675781 110.08890625 89.82101563 110.0703125 91.11328125 C110.04710937 92.06589844 110.02390625 93.01851563 110 94 C110.66 94 111.32 94 112 94 C112 94.66 112 95.32 112 96 C112.7425 96.268125 113.485 96.53625 114.25 96.8125 C116.89061949 97.95276751 118.85552844 99.09380306 121 101 C121 101.66 121 102.32 121 103 C121.639375 103.103125 122.27875 103.20625 122.9375 103.3125 C123.618125 103.539375 124.29875 103.76625 125 104 C125.33 104.99 125.66 105.98 126 107 C126.66 107 127.32 107 128 107 C128 107.66 128 108.32 128 109 C128.66 109 129.32 109 130 109 C131.0064275 110.66279327 132.00585407 112.32983484 133 114 C133.99 114.66 134.98 115.32 136 116 C136 116.99 136 117.98 136 119 C136.99 119.33 137.98 119.66 139 120 C139.33 121.65 139.66 123.3 140 125 C140.66 125 141.32 125 142 125 C142.67305018 126.60149886 143.33822227 128.20631029 144 129.8125 C144.37125 130.70582031 144.7425 131.59914063 145.125 132.51953125 C146 135 146 135 146 138 C146.78375 138.0825 147.5675 138.165 148.375 138.25 C155.25451212 139.67334734 161.21365865 141.73502451 166 147 C167.36170356 147.83459251 168.73831451 148.64510829 170.125 149.4375 C172.98266706 151.14785091 173.88549668 151.78530627 175.5 154.8125 C175.665 155.534375 175.83 156.25625 176 157 C176.66 157 177.32 157 178 157 C178 157.99 178 158.98 178 160 C178.66 160 179.32 160 180 160 C181.46849135 162.93698269 182.93662489 165.87413216 184.40234375 168.8125 C185.34430436 170.69181505 186.29228034 172.56817112 187.25390625 174.4375 C194.29247863 188.15102847 191.92123539 204.94512271 187.484375 219.21484375 C186.15534145 222.93520175 184.435899 225.88692108 182 229 C181.34 229 180.68 229 180 229 C179.566875 229.86625 179.566875 229.86625 179.125 230.75 C178.75375 231.4925 178.3825 232.235 178 233 C177.731875 233.66 177.46375 234.32 177.1875 235 C175.60316809 237.66834848 173.44156924 239.12186982 171 241 C170.67 241.66 170.34 242.32 170 243 C169.34 243 168.68 243 168 243 C168 243.66 168 244.32 168 245 C166.865625 245.45375 165.73125 245.9075 164.5625 246.375 C160.95278308 247.57095806 160.95278308 247.57095806 160 250 C158.2578125 250.8515625 158.2578125 250.8515625 156.125 251.625 C155.42632812 251.88539063 154.72765625 252.14578125 154.0078125 252.4140625 C152 253 152 253 149 253 C149 253.66 149 254.32 149 255 C139.56613252 256.74852607 130.43433806 257.28897108 120.85668945 257.25878906 C119.3864576 257.26150698 117.91622711 257.26507236 116.44599915 257.26940918 C112.49110641 257.27844438 108.53631928 257.27502489 104.58142495 257.26865101 C100.41253163 257.26353984 96.24364654 257.26829697 92.07475281 257.27142334 C85.07203574 257.27505023 78.06936101 257.27029967 71.06665039 257.26074219 C63.017047 257.24988142 54.96754515 257.25337108 46.91794425 257.264395 C39.96458336 257.27353001 33.0112527 257.27472242 26.05788773 257.26951766 C21.92376593 257.2664291 17.78969149 257.26590096 13.65557289 257.27259064 C-29.90911081 257.33332522 -29.90911081 257.33332522 -43 252 C-43 251.34 -43 250.68 -43 250 C-43.59167969 249.84144531 -44.18335938 249.68289063 -44.79296875 249.51953125 C-50.22609693 247.91529601 -53.09039927 246.21825342 -57 242 C-59.27451455 240.51557998 -61.59546226 239.27299057 -64 238 C-64 237.01 -64 236.02 -64 235 C-64.66 235 -65.32 235 -66 235 C-67.35386936 233.34997172 -68.68678142 231.6825613 -70 230 C-70.66 229.67 -71.32 229.34 -72 229 C-72 228.34 -72 227.68 -72 227 C-72.66 227 -73.32 227 -74 227 C-74 225.68 -74 224.36 -74 223 C-74.66 223 -75.32 223 -76 223 C-77.02225547 221.00929198 -78.01786086 219.01067856 -79 217 C-79.40992188 216.1646875 -79.81984375 215.329375 -80.2421875 214.46875 C-89.44083848 195.09171006 -86.87945378 173.8577141 -80 154 C-79.34 154 -78.68 154 -78 154 C-76.46112743 147.60776009 -77.32102974 144.35867762 -80.578125 138.6875 C-83.85480186 132.49422065 -85.61661793 126.21194585 -86.6875 119.3125 C-86.81342529 118.50232422 -86.93935059 117.69214844 -87.0690918 116.85742188 C-88.90724419 103.82483432 -89.36132894 89.8150666 -86 77 C-85.34 77 -84.68 77 -84 77 C-83.95101562 76.24074219 -83.90203125 75.48148437 -83.8515625 74.69921875 C-83.77679688 73.70535156 -83.70203125 72.71148437 -83.625 71.6875 C-83.55539063 70.70136719 -83.48578125 69.71523437 -83.4140625 68.69921875 C-83 66 -83 66 -81 63 C-80.61500109 61.34450469 -80.27206865 59.6777567 -80 58 C-79.34 58 -78.68 58 -78 58 C-77.67 56.35 -77.34 54.7 -77 53 C-76.34 53 -75.68 53 -75 53 C-74.814375 52.071875 -74.62875 51.14375 -74.4375 50.1875 C-72.85998774 44.59136161 -69.51235772 39.58097599 -66 35 C-65.34 35 -64.68 35 -64 35 C-63.7525 34.38125 -63.505 33.7625 -63.25 33.125 C-61.79371361 30.64931313 -60.62187494 30.04874998 -58 29 C-58 28.34 -58 27.68 -58 27 C-57.34 27 -56.68 27 -56 27 C-55.79375 26.401875 -55.5875 25.80375 -55.375 25.1875 C-53.47304173 22.1616573 -51.24699596 21.35291498 -48 20 C-47.34 20 -46.68 20 -46 20 C-46 19.01 -46 18.02 -46 17 C-44.68 17 -43.36 17 -42 17 C-42 16.34 -42 15.68 -42 15 C-41.34 15 -40.68 15 -40 15 C-40 14.34 -40 13.68 -40 13 C-36.91190305 11.23537317 -35.76687864 11 -32 11 C-32 10.34 -32 9.68 -32 9 C-25.89664307 6.04579529 -19.83078573 4.40656387 -13.1875 3.25 C-12.09417358 3.05893677 -12.09417358 3.05893677 -10.97875977 2.86401367 C-7.28716368 2.25829818 -3.7415798 1.85298311 0 2 C0 1.34 0 0.68 0 0 Z " fill="#231816" transform="translate(240,163)"/>
<path d="M0 0 C0.67417969 0.4640625 1.34835937 0.928125 2.04296875 1.40625 C3.13609375 2.086875 4.22921875 2.7675 5.35546875 3.46875 C17.08635906 11.92590348 26.25906997 24.26393287 28.74609375 38.5 C28.89304687 39.44359375 28.89304687 39.44359375 29.04296875 40.40625 C29.88601563 40.68597656 30.7290625 40.96570313 31.59765625 41.25390625 C32.73460937 41.63417969 33.8715625 42.01445312 35.04296875 42.40625 C36.74839844 42.96119141 36.74839844 42.96119141 38.48828125 43.52734375 C50.43754301 47.8021858 60.45934121 54.45605794 66.15625 66.2734375 C66.44886719 66.97726562 66.74148438 67.68109375 67.04296875 68.40625 C67.34589844 69.13070312 67.64882813 69.85515625 67.9609375 70.6015625 C72.93382221 83.2555696 71.56990967 95.477145 66.359375 107.859375 C61.29162561 117.66404147 53.24434553 125.84740666 42.72497737 129.43372869 C33.78234861 132.26557154 25.53580155 133.11518907 16.12841797 133.02148438 C14.61184064 133.02499791 13.09526705 133.03067025 11.57870483 133.03829956 C7.51247417 133.05237817 3.44693358 133.03565658 -0.61923075 133.01201439 C-4.9047491 132.99168846 -9.19024479 132.99779598 -13.47579956 133.00012207 C-20.66578344 133.00006874 -27.8555024 132.98045613 -35.04541016 132.94824219 C-43.32299547 132.91133205 -51.60023477 132.90257322 -59.87789166 132.9095397 C-67.889099 132.91587372 -75.90018945 132.90503882 -83.91137314 132.88557434 C-87.29936278 132.87746275 -90.68729217 132.87467913 -94.07529068 132.87626648 C-98.07286035 132.87715408 -102.07010807 132.86269762 -106.06759262 132.83703995 C-107.52268663 132.82996011 -108.97781511 132.82775427 -110.43292236 132.83115768 C-129.21521368 132.86666908 -144.71895249 129.21815742 -158.52734375 115.93945312 C-170.35193408 103.25871076 -174.15519679 88.31532382 -174.22265625 71.43359375 C-173.86822511 63.24027674 -171.42027073 56.55235432 -167.51953125 49.40625 C-167.12443359 48.64441406 -166.72933594 47.88257813 -166.32226562 47.09765625 C-163.34248276 41.53473384 -163.34248276 41.53473384 -159.95703125 40.40625 C-159.66054687 39.808125 -159.3640625 39.21 -159.05859375 38.59375 C-155.23781179 31.00638156 -145.16884234 26.3172474 -137.49609375 23.50390625 C-127.28867007 20.40165003 -114.36238449 19.71485547 -103.95703125 22.40625 C-98.24935065 23.0809157 -98.24935065 23.0809157 -93.45703125 20.46875 C-92.21953125 18.9528125 -92.21953125 18.9528125 -90.95703125 17.40625 C-85.76138813 11.25653966 -80.51094035 6.0981139 -73.95703125 1.40625 C-72.94640625 0.66375 -71.93578125 -0.07875 -70.89453125 -0.84375 C-67.3661396 -2.94577056 -63.82312774 -4.254372 -59.95703125 -5.59375 C-58.53925475 -6.13250507 -57.12255896 -6.67411387 -55.70703125 -7.21875 C-37.71628163 -13.8153582 -15.84130227 -10.40165911 0 0 Z " fill="#FEFEFE" transform="translate(343.95703125,271.59375)"/>
<path d="M0 0 C2.39388213 1.89575397 4.69557838 3.85860308 6.984375 5.87890625 C8.015625 6.66265625 9.046875 7.44640625 10.109375 8.25390625 C22.25703259 19.34524579 30.66243118 34.82284445 33.984375 50.87890625 C33.984375 52.19890625 33.984375 53.51890625 33.984375 54.87890625 C33.26024414 54.73888184 32.53611328 54.59885742 31.79003906 54.45458984 C24.39041159 53.11039153 17.25084623 52.49213325 9.734375 52.50390625 C8.10520142 52.50632324 8.10520142 52.50632324 6.44311523 52.50878906 C-2.59964352 52.64564809 -10.45518144 53.95459397 -19.015625 56.87890625 C-20.40394531 57.32943359 -20.40394531 57.32943359 -21.8203125 57.7890625 C-33.92370631 62.14402195 -45.57958491 70.42814304 -52.953125 81.00390625 C-54.36328125 82.703125 -54.36328125 82.703125 -56.015625 83.87890625 C-58.73230331 84.12931312 -61.10070594 83.78421643 -63.796875 83.37109375 C-82.20925508 80.55560845 -100.06541154 85.20421331 -115.30078125 95.73046875 C-118.02776451 97.79896767 -118.02776451 97.79896767 -120.26171875 100.15234375 C-122.015625 101.87890625 -122.015625 101.87890625 -124.015625 101.87890625 C-124.65288463 100.27957018 -125.27455854 98.67402493 -125.890625 97.06640625 C-126.23867187 96.17308594 -126.58671875 95.27976562 -126.9453125 94.359375 C-132.31636937 76.89363898 -131.91093972 57.11735129 -126.015625 39.87890625 C-125.67660156 38.83992188 -125.33757812 37.8009375 -124.98828125 36.73046875 C-117.45942074 16.31412815 -100.28085942 1.07367722 -81.015625 -8.12109375 C-54.77099149 -19.45400368 -23.35624396 -16.4280317 0 0 Z " fill="#F7B52C" transform="translate(299.015625,194.12109375)"/>
<path d="M0 0 C1.72372782 -0.03279491 3.44833791 -0.03107624 5.17211914 -0.0012207 C6.08683487 -0.00458939 7.0015506 -0.00795807 7.94398499 -0.01142883 C9.87645088 -0.01113014 11.80896411 0.00410447 13.74121094 0.03320312 C16.69426697 0.07282352 19.6428191 0.05393113 22.59594727 0.02807617 C24.47552194 0.03563697 26.35508665 0.04659214 28.23461914 0.0612793 C29.11496323 0.0542952 29.99530731 0.0473111 30.90232849 0.04011536 C35.30584058 0.14115181 37.22485656 0.35023933 40.84228516 3.07373047 C43.31665426 6.52280355 43.24039038 8.60339897 42.76977539 12.76049805 C42.43977539 13.42049805 42.10977539 14.08049805 41.76977539 14.76049805 C41.10977539 14.76049805 40.44977539 14.76049805 39.76977539 14.76049805 C39.76977539 15.42049805 39.76977539 16.08049805 39.76977539 16.76049805 C35.81180662 18.07982097 31.99626863 17.96276707 27.86743164 17.9987793 C26.99332138 18.00685104 26.11921112 18.01492279 25.21861267 18.02323914 C23.37020849 18.03706328 21.52177896 18.0477929 19.67333984 18.05566406 C16.84627188 18.07291265 14.0203629 18.11681673 11.19360352 18.16088867 C9.39738815 18.17101291 7.60116286 18.17952985 5.80493164 18.1862793 C4.96003677 18.20378738 4.11514191 18.22129547 3.24464417 18.23933411 C-2.60013297 18.21771256 -2.60013297 18.21771256 -5.73242188 15.94482422 C-7.88768208 12.80169251 -8.23022461 10.56041712 -8.23022461 6.76049805 C-6.27566662 2.3611377 -4.77510316 0.42789728 0 0 Z " fill="#201615" transform="translate(379.230224609375,253.239501953125)"/>
<path d="M0 0 C0.94165512 -0.00478363 1.88331024 -0.00956726 2.85350037 -0.01449585 C4.84139682 -0.0178944 6.8293492 -0.00869507 8.81713867 0.01220703 C11.86438085 0.03900347 14.90794962 0.01244282 17.95507812 -0.01953125 C19.8867269 -0.01622773 21.81837338 -0.00982269 23.75 0 C25.11881065 -0.01518173 25.11881065 -0.01518173 26.51527405 -0.03067017 C28.88541258 0.01339361 31.00625073 0.0999544 33.30859375 0.6640625 C35.94231848 3.61371019 36.26210213 5.23014073 36.68359375 9.1640625 C36.26313337 13.08835934 35.92346871 14.71294502 33.30859375 17.6640625 C30.22022995 18.43931579 27.17419581 18.36427815 24.00390625 18.328125 C23.08777557 18.33290863 22.1716449 18.33769226 21.22775269 18.34262085 C19.28935023 18.34602369 17.35089068 18.33679436 15.41259766 18.31591797 C12.45083814 18.28921796 9.49288945 18.31561988 6.53125 18.34765625 C4.64712707 18.34435102 2.7630065 18.33794244 0.87890625 18.328125 C-0.44631546 18.34330673 -0.44631546 18.34330673 -1.79830933 18.35879517 C-6.21920593 18.27492905 -8.13136617 18.08875733 -11.75439453 15.34130859 C-13.69140625 12.6640625 -13.69140625 12.6640625 -14.25390625 9.1640625 C-12.82760081 0.28927312 -7.77686727 -0.08644643 0 0 Z " fill="#201615" transform="translate(94.69140625,253.3359375)"/>
<path d="M0 0 C0.87785156 0.01546875 1.75570312 0.0309375 2.66015625 0.046875 C4.9375 0.25 4.9375 0.25 6.9375 1.25 C6.9375 1.91 6.9375 2.57 6.9375 3.25 C7.5975 3.25 8.2575 3.25 8.9375 3.25 C8.98696121 8.87335936 9.02324868 14.4965919 9.04736328 20.12011719 C9.0574169 22.03290004 9.07106173 23.94566755 9.08837891 25.85839844 C9.11265522 28.60876252 9.1239895 31.35892328 9.1328125 34.109375 C9.14313507 34.96368103 9.15345764 35.81798706 9.16409302 36.69818115 C9.16424408 37.49870911 9.16439514 38.29923706 9.16455078 39.12402344 C9.168992 39.82573669 9.17343323 40.52744995 9.17800903 41.25042725 C8.89675791 43.58872645 8.09035101 45.21267675 6.9375 47.25 C6.2775 47.25 5.6175 47.25 4.9375 47.25 C4.9375 47.91 4.9375 48.57 4.9375 49.25 C3.33417209 49.33121924 1.72965974 49.38929134 0.125 49.4375 C-1.21498047 49.48970703 -1.21498047 49.48970703 -2.58203125 49.54296875 C-5.0625 49.25 -5.0625 49.25 -6.69326782 47.9967041 C-8.38851771 45.83410526 -8.44199246 44.73416116 -8.45068359 42.00976562 C-8.46014008 41.15878296 -8.46959656 40.30780029 -8.4793396 39.43103027 C-8.47326691 38.51535278 -8.46719421 37.59967529 -8.4609375 36.65625 C-8.46380768 35.71317993 -8.46667786 34.77010986 -8.46963501 33.79846191 C-8.47167646 31.80460001 -8.46614093 29.81071812 -8.45361328 27.81689453 C-8.43756089 24.76158956 -8.45345933 21.70760748 -8.47265625 18.65234375 C-8.47067383 16.71614291 -8.46683019 14.77994289 -8.4609375 12.84375 C-8.46701019 11.92807251 -8.47308289 11.01239502 -8.4793396 10.06896973 C-8.46988312 9.21798706 -8.46042664 8.36700439 -8.45068359 7.49023438 C-8.44829681 6.74205444 -8.44591003 5.99387451 -8.44345093 5.22302246 C-7.52001937 0.44038232 -4.35974683 -0.1284167 0 0 Z " fill="#201615" transform="translate(251.0625,92.75)"/>
<path d="M0 0 C1.22589844 0.15275391 1.22589844 0.15275391 2.4765625 0.30859375 C3.41628906 0.43427734 3.41628906 0.43427734 4.375 0.5625 C4.375 1.2225 4.375 1.8825 4.375 2.5625 C5.07625 2.645 5.7775 2.7275 6.5 2.8125 C10.0653452 3.74259005 12.46515572 5.32936369 15.375 7.5625 C15.375 8.2225 15.375 8.8825 15.375 9.5625 C18.015 10.2225 20.655 10.8825 23.375 11.5625 C23.375 12.2225 23.375 12.8825 23.375 13.5625 C24.24125 13.7171875 24.24125 13.7171875 25.125 13.875 C27.70635463 14.66374725 29.25390278 15.92036022 31.375 17.5625 C32.365 17.8925 33.355 18.2225 34.375 18.5625 C34.375 19.2225 34.375 19.8825 34.375 20.5625 C35.035 20.5625 35.695 20.5625 36.375 20.5625 C36.97650376 27.66024436 36.97650376 27.66024436 34.375 31.5625 C30.34520535 34.24902977 28.13565969 33.96594574 23.375 33.5625 C23.375 32.9025 23.375 32.2425 23.375 31.5625 C22.715 31.5625 22.055 31.5625 21.375 31.5625 C21.375 30.9025 21.375 30.2425 21.375 29.5625 C20.055 29.5625 18.735 29.5625 17.375 29.5625 C17.375 28.9025 17.375 28.2425 17.375 27.5625 C16.323125 27.294375 15.27125 27.02625 14.1875 26.75 C10.78427088 25.68997781 8.24341082 24.64861696 5.375 22.5625 C5.375 21.9025 5.375 21.2425 5.375 20.5625 C4.79878906 20.43359375 4.22257812 20.3046875 3.62890625 20.171875 C-1.11536564 18.8891949 -5.34623107 16.95752065 -8.6875 13.3125 C-10.02451808 9.39058031 -9.38114768 6.61820118 -8.625 2.5625 C-7.965 2.5625 -7.305 2.5625 -6.625 2.5625 C-6.625 1.9025 -6.625 1.2425 -6.625 0.5625 C-4.10446405 -0.69776798 -2.7707902 -0.35624445 0 0 Z " fill="#201615" transform="translate(112.625,173.4375)"/>
<path d="M0 0 C2.66135342 1.91071528 3.71846213 3.15538639 4.75 6.25 C4.87375 7.11625 4.87375 7.11625 5 8 C5.66 8 6.32 8 7 8 C8.17154293 10.28929053 9.33738074 12.58118362 10.5 14.875 C10.83386719 15.52597656 11.16773438 16.17695313 11.51171875 16.84765625 C14 21.7734375 14 21.7734375 14 24 C14.66 24 15.32 24 16 24 C16.34933594 24.63808594 16.69867188 25.27617187 17.05859375 25.93359375 C17.74115234 27.17302734 17.74115234 27.17302734 18.4375 28.4375 C18.88996094 29.26121094 19.34242188 30.08492187 19.80859375 30.93359375 C20.83662397 32.92308798 20.83662397 32.92308798 22 34 C22.46822742 40.32107023 22.46822742 40.32107023 20.75 42.8125 C17.83474266 44.79071033 15.6076228 45.86790809 12.125 46.625 C7.87209049 45.7744181 6.80127207 43.89828059 4.4296875 40.40234375 C2.5479758 37.24045114 0.94159637 33.98781455 -0.6328125 30.6640625 C-2.66995377 26.69454723 -5.15107529 23.04264963 -7.64453125 19.34765625 C-9 17 -9 17 -9 14 C-9.66 14 -10.32 14 -11 14 C-12.19754817 10.40735548 -12.33094958 7.77282526 -12 4 C-9.11815733 -0.68299434 -5.07643591 -1.0423893 0 0 Z " fill="#201615" transform="translate(174,114)"/>
<path d="M0 0 C0 0.66 0 1.32 0 2 C0.99 2 1.98 2 3 2 C5.44683829 5.67025743 5.82203355 8.73407853 5 13 C1.67194505 16.74406181 -3.33935878 19.16694446 -8 21 C-8.99 21 -9.98 21 -11 21 C-11 21.66 -11 22.32 -11 23 C-12.78881736 24.00508801 -14.58114696 25.00392736 -16.375 26 C-17.37273437 26.556875 -18.37046875 27.11375 -19.3984375 27.6875 C-22 29 -22 29 -24 29 C-24 29.66 -24 30.32 -24 31 C-25.24420647 31.5345256 -26.49570936 32.05208611 -27.75 32.5625 C-28.44609375 32.85253906 -29.1421875 33.14257812 -29.859375 33.44140625 C-33.07503239 34.28052853 -35.18255221 33.32697912 -38.1875 32.125 C-40 31 -40 31 -41 28 C-41.4375 24.625 -41.4375 24.625 -41 21 C-37.65915298 17.42607063 -34.92297294 15.43437997 -30 15 C-30 14.34 -30 13.68 -30 13 C-24.375 10 -24.375 10 -21 10 C-21 9.34 -21 8.68 -21 8 C-20.49210937 7.75765625 -19.98421875 7.5153125 -19.4609375 7.265625 C-16.05174395 5.60571803 -13.00784956 4.00576702 -9.9375 1.75 C-6.38376476 -0.36711887 -4.06706698 -0.32536536 0 0 Z " fill="#201714" transform="translate(144,318)"/>
<path d="M0 0 C2.01057755 0.00355226 4.01957714 0.1521554 6.0234375 0.31640625 C6.0234375 0.97640625 6.0234375 1.63640625 6.0234375 2.31640625 C7.3434375 2.64640625 8.6634375 2.97640625 10.0234375 3.31640625 C10.21835202 4.77376712 10.40413108 6.23235218 10.5859375 7.69140625 C10.74255859 8.90957031 10.74255859 8.90957031 10.90234375 10.15234375 C11.0234375 12.31640625 11.0234375 12.31640625 10.0234375 14.31640625 C9.3634375 14.31640625 8.7034375 14.31640625 8.0234375 14.31640625 C8.0234375 15.30640625 8.0234375 16.29640625 8.0234375 17.31640625 C7.3634375 17.31640625 6.7034375 17.31640625 6.0234375 17.31640625 C5.6934375 18.96640625 5.3634375 20.61640625 5.0234375 22.31640625 C4.3634375 22.31640625 3.7034375 22.31640625 3.0234375 22.31640625 C2.9409375 23.01765625 2.8584375 23.71890625 2.7734375 24.44140625 C1.84485266 28.00098145 0.14293999 30.32416744 -1.9765625 33.31640625 C-2.4715625 34.16203125 -2.9665625 35.00765625 -3.4765625 35.87890625 C-4.9765625 38.31640625 -4.9765625 38.31640625 -7.1015625 40.94140625 C-9.14366322 43.25163431 -9.14366322 43.25163431 -9.9765625 46.31640625 C-17.05620852 46.67038855 -17.05620852 46.67038855 -20.4140625 45.37890625 C-22.95064832 42.03061297 -23.29932391 38.45362073 -22.9765625 34.31640625 C-21.2265625 31.69140625 -21.2265625 31.69140625 -18.9765625 29.31640625 C-18.24133584 27.62218829 -17.50819578 25.92648644 -16.82421875 24.2109375 C-15.54804168 21.35865234 -13.87196169 18.80172211 -12.17578125 16.18359375 C-11.15642936 14.59645954 -10.2138352 12.96044661 -9.2890625 11.31640625 C-8.8559375 10.65640625 -8.4228125 9.99640625 -7.9765625 9.31640625 C-7.3165625 9.31640625 -6.6565625 9.31640625 -5.9765625 9.31640625 C-5.8734375 8.75953125 -5.7703125 8.20265625 -5.6640625 7.62890625 C-3.565705 0.57079467 -3.565705 0.57079467 0 0 Z " fill="#201615" transform="translate(329.9765625,113.68359375)"/>
<path d="M0 0 C1.75 1.0625 1.75 1.0625 2.75 3.0625 C3.125 6.4375 3.125 6.4375 2.75 10.0625 C0.4375 12.3125 0.4375 12.3125 -2.25 14.0625 C-2.724375 14.619375 -3.19875 15.17625 -3.6875 15.75 C-5.99144195 17.68531124 -8.32295311 17.73727257 -11.25 18.0625 C-11.58 19.0525 -11.91 20.0425 -12.25 21.0625 C-13.92431343 21.81977931 -15.60458294 22.5673914 -17.31591797 23.23681641 C-21.53562529 25.03826177 -25.26062325 27.88230301 -29.06640625 30.41796875 C-32.5312578 32.20778777 -34.41301989 32.56297567 -38.25 32.0625 C-39.24 31.4025 -40.23 30.7425 -41.25 30.0625 C-41.25 29.4025 -41.25 28.7425 -41.25 28.0625 C-41.91 28.0625 -42.57 28.0625 -43.25 28.0625 C-43.5 20.4375 -43.5 20.4375 -41.25 17.0625 C-38.9375 15.67578125 -38.9375 15.67578125 -36.25 14.375 C-35.363125 13.93800781 -34.47625 13.50101563 -33.5625 13.05078125 C-31.25 12.0625 -31.25 12.0625 -29.25 12.0625 C-28.92 11.0725 -28.59 10.0825 -28.25 9.0625 C-26.18359375 8.11328125 -26.18359375 8.11328125 -23.6875 7.375 C-22.86121094 7.12363281 -22.03492188 6.87226563 -21.18359375 6.61328125 C-20.54550781 6.43152344 -19.90742188 6.24976563 -19.25 6.0625 C-19.25 5.4025 -19.25 4.7425 -19.25 4.0625 C-17.36351956 3.02448445 -15.46536344 2.00766833 -13.5625 1 C-12.50675781 0.43152344 -11.45101563 -0.13695312 -10.36328125 -0.72265625 C-6.1948032 -2.34925183 -3.99683072 -1.66534613 0 0 Z " fill="#211715" transform="translate(397.25,174.9375)"/>
<path d="M0 0 C4.38938221 6.58407331 7 14.05800591 7 22 C5.98341309 21.78561279 5.98341309 21.78561279 4.94628906 21.56689453 C-3.83193692 19.89227461 -12.36333775 19.76549219 -21.25 19.875 C-22.68879577 19.88506151 -24.12759845 19.89418169 -25.56640625 19.90234375 C-29.04441753 19.9240794 -32.52216245 19.95842967 -36 20 C-35.67 19.34 -35.34 18.68 -35 18 C-29.10867201 16.92700899 -22.9904926 16.96015041 -17.015625 17.046875 C-16.16532715 17.05799316 -15.3150293 17.06911133 -14.43896484 17.08056641 C-12.74626574 17.10990094 -11.05374681 17.15356117 -9.36181641 17.21240234 C-8.1888501 17.23488037 -8.1888501 17.23488037 -6.9921875 17.2578125 C-6.29464355 17.2798877 -5.59709961 17.30196289 -4.87841797 17.32470703 C-2.36877163 16.89088462 -1.51185024 16.01803061 0 14 C0.36398618 10.56919882 0.36398618 10.56919882 0.1875 6.8125 C0.16042969 5.54019531 0.13335937 4.26789063 0.10546875 2.95703125 C0.05326172 1.49330078 0.05326172 1.49330078 0 0 Z " fill="#E0A938" transform="translate(326,227)"/>
<path d="M0 0 C0.95792977 3.63852314 1.49800802 7.27091669 2 11 C1.01 11.495 1.01 11.495 0 12 C-1.16168087 15.21094847 -1.12900977 18.33941512 -1.1328125 21.7265625 C-1.13474609 23.39912109 -1.13474609 23.39912109 -1.13671875 25.10546875 C-1.13285156 26.26691406 -1.12898437 27.42835938 -1.125 28.625 C-1.12886719 29.76324219 -1.13273438 30.90148437 -1.13671875 32.07421875 C-1.28949143 42.09916632 -1.28949143 42.09916632 0 52 C0.66 52.33 1.32 52.66 2 53 C2.625 56.0625 2.625 56.0625 3 59 C3.66 59 4.32 59 5 59 C5 58.34 5 57.68 5 57 C5.99 57.33 6.98 57.66 8 58 C6.71034824 59.37562854 5.37310707 60.70766393 4 62 C3.34 62 2.68 62 2 62 C1.36274037 60.40066393 0.74106646 58.79511868 0.125 57.1875 C-0.22304687 56.29417969 -0.57109375 55.40085937 -0.9296875 54.48046875 C-3.58275313 45.8531641 -4.38672653 37.30674471 -4.375 28.3125 C-4.37628906 27.27609375 -4.37757813 26.2396875 -4.37890625 25.171875 C-4.25838994 16.33036039 -2.75776295 8.37178039 0 0 Z " fill="#E3B149" transform="translate(173,234)"/>
<path d="M0 0 C0.33 0 0.66 0 1 0 C1 11.55 1 23.1 1 35 C0.01 35.495 0.01 35.495 -1 36 C-1.90413416 29.03455042 -2.1829909 22.20817268 -2.1875 15.1875 C-2.19974609 14.16462891 -2.21199219 13.14175781 -2.22460938 12.08789062 C-2.22654297 11.10369141 -2.22847656 10.11949219 -2.23046875 9.10546875 C-2.23457764 8.22012451 -2.23868652 7.33478027 -2.24291992 6.42260742 C-1.98471099 3.84752475 -1.29997808 2.21707929 0 0 Z " fill="#442804" transform="translate(169,245)"/>
<path d="M0 0 C1.8125 0.16015625 1.8125 0.16015625 4 1 C6.47129475 4.75018979 8.17002992 8.90458568 10 13 C10.42023438 13.90363281 10.84046875 14.80726563 11.2734375 15.73828125 C13.62199048 21.09331518 14.43259736 25.15993566 14 31 C12.1680627 28.25209404 11.58724327 26.78127348 10.8125 23.6875 C8.81190936 16.68543275 5.35853545 10.42572807 2 4 C1.32988804 2.66839488 0.66139662 1.33595536 0 0 Z " fill="#3D2104" transform="translate(319,214)"/>
<path d="M0 0 C27.00047446 -0.87927397 27.00047446 -0.87927397 40 4 C40.66 4.66 41.32 5.32 42 6 C40.52031676 5.85950482 39.04125484 5.71245174 37.5625 5.5625 C36.73878906 5.48128906 35.91507812 5.40007812 35.06640625 5.31640625 C33 5 33 5 32 4 C21.48723092 1.68791333 10.71417106 1.4299245 0 1 C0 0.67 0 0.34 0 0 Z " fill="#E1AF46" transform="translate(240,180)"/>
<path d="M0 0 C1.38631424 4.15894272 -0.07981523 5.95632709 -1.88671875 9.78125 C-3.8490333 13.69210848 -5.73516137 17.04609838 -9 20 C-10 17 -10 17 -9.1796875 14.765625 C-6.45717424 9.51622818 -3.58233772 4.70821529 0 0 Z " fill="#DCA739" transform="translate(185,212)"/>
<path d="M0 0 C0.66 0 1.32 0 2 0 C2 0.66 2 1.32 2 2 C2.66 2 3.32 2 4 2 C3.67 3.32 3.34 4.64 3 6 C3 5.34 3 4.68 3 4 C2.34 4 1.68 4 1 4 C1.37125 5.0725 1.7425 6.145 2.125 7.25 C3 11 3 11 1 15 C-0.65 11.7 -2.3 8.4 -4 5 C-3.34 4.67 -2.68 4.34 -2 4 C-1.67 4.33 -1.34 4.66 -1 5 C-0.67 3.35 -0.34 1.7 0 0 Z " fill="#251A19" transform="translate(411,329)"/>
<path d="M0 0 C0.66 0.33 1.32 0.66 2 1 C1.0443848 3.58436814 0.08562111 6.16749301 -0.875 8.75 C-1.14441406 9.47960937 -1.41382813 10.20921875 -1.69140625 10.9609375 C-2.97365019 14.40110416 -4.24617871 17.76479567 -6 21 C-6.72786324 13.43022233 -4.29865466 7.75953824 -1 1 C-0.67 0.67 -0.34 0.34 0 0 Z " fill="#391E03" transform="translate(176,223)"/>
<path d="M0 0 C0.66 0.33 1.32 0.66 2 1 C1.21718695 2.33855056 0.42348123 3.67073644 -0.375 5 C-0.81585938 5.7425 -1.25671875 6.485 -1.7109375 7.25 C-2.34902344 8.11625 -2.34902344 8.11625 -3 9 C-3.66 9 -4.32 9 -5 9 C-5 8.34 -5 7.68 -5 7 C-6.98 7.33 -8.96 7.66 -11 8 C-8.83385197 5.69125289 -6.60793392 3.94709819 -3.9375 2.25 C-2.89916016 1.57710938 -2.89916016 1.57710938 -1.83984375 0.890625 C-1.23269531 0.59671875 -0.62554687 0.3028125 0 0 Z " fill="#3A240C" transform="translate(195,282)"/>
<path d="M0 0 C0 0.66 0 1.32 0 2 C-0.66 2 -1.32 2 -2 2 C-2.226875 2.598125 -2.45375 3.19625 -2.6875 3.8125 C-4.38626852 6.64378087 -6.00965555 7.64722513 -9 9 C-11.1640625 8.57421875 -11.1640625 8.57421875 -13 8 C-11.72992786 7.0406581 -10.45891081 6.08256706 -9.1875 5.125 C-8.47980469 4.59132812 -7.77210938 4.05765625 -7.04296875 3.5078125 C-2.29015544 0 -2.29015544 0 0 0 Z " fill="#DAA83B" transform="translate(212,190)"/>
<path d="M0 0 C-4.95 2.97 -9.9 5.94 -15 9 C-15.66 8.34 -16.32 7.68 -17 7 C-16.01 6.67 -15.02 6.34 -14 6 C-13.34 5.01 -12.68 4.02 -12 3 C-9.94140625 1.796875 -9.94140625 1.796875 -7.5625 0.75 C-6.38880859 0.21632813 -6.38880859 0.21632813 -5.19140625 -0.328125 C-3 -1 -3 -1 0 0 Z " fill="#E2AE43" transform="translate(197,282)"/>
<path d="M0 0 C5.8845041 3.94291645 10.05708355 8.1154959 14 14 C10.52803962 13.43879951 9.15946038 12.42790216 7 9.6875 C5.26802339 7.54231069 3.60799355 5.61830951 1.625 3.6875 C0 2 0 2 0 0 Z " fill="#D9A645" transform="translate(304,199)"/>
<path d="M0 0 C5.8007695 1.20015921 8.619616 4.39892177 12 9 C11.67 9.99 11.34 10.98 11 12 C10.484375 11.29875 9.96875 10.5975 9.4375 9.875 C6.96009764 6.95293568 4.3488777 4.64572384 1.390625 2.234375 C0.93171875 1.82703125 0.4728125 1.4196875 0 1 C0 0.67 0 0.34 0 0 Z " fill="#3F2106" transform="translate(303,197)"/>
<path d="M0 0 C1.65 0 3.3 0 5 0 C5.33 4.62 5.66 9.24 6 14 C4.36270893 11.5440634 3.41974122 9.71530556 2.4375 7 C2.18871094 6.319375 1.93992187 5.63875 1.68359375 4.9375 C1.10503179 3.2976901 0.54988276 1.64964827 0 0 Z " fill="#3C3533" transform="translate(368,298)"/>
<path d="M0 0 C-2.96828999 1.97885999 -5.77447054 3.25864997 -9.0625 4.625 C-10.12597656 5.07101563 -11.18945312 5.51703125 -12.28515625 5.9765625 C-15 7 -15 7 -17 7 C-17 6.34 -17 5.68 -17 5 C-15.75264433 4.3490741 -14.50198168 3.70448331 -13.25 3.0625 C-12.55390625 2.70285156 -11.8578125 2.34320313 -11.140625 1.97265625 C-7.34995505 0.2502533 -4.14794558 -0.11522071 0 0 Z " fill="#3E2304" transform="translate(229,182)"/>
<path d="M0 0 C2.5654594 2.5654594 2.54046087 4.47686668 3 8 C5.31 6.02 7.62 4.04 10 2 C10.66 2.33 11.32 2.66 12 3 C9.76592111 6.35111834 8.73784176 7.81553956 4.75 8.8125 C3.8425 8.874375 2.935 8.93625 2 9 C0.50178941 5.62902617 0 3.79557881 0 0 Z " fill="#492C06" transform="translate(172,288)"/>
<path d="M0 0 C1.01382963 3.6208201 1.49897691 7.27811418 2 11 C1.360625 11.12375 0.72125 11.2475 0.0625 11.375 C-0.618125 11.58125 -1.29875 11.7875 -2 12 C-2.33 12.66 -2.66 13.32 -3 14 C-2.48594831 9.03083364 -1.76615118 4.70973649 0 0 Z " fill="#D2A036" transform="translate(173,234)"/>
<path d="M0 0 C-1.38264837 2.86867231 -2.92148553 5.56024032 -4.625 8.25 C-5.07101563 8.95640625 -5.51703125 9.6628125 -5.9765625 10.390625 C-6.48316406 11.18726563 -6.48316406 11.18726563 -7 12 C-7.58984375 10.171875 -7.58984375 10.171875 -8 8 C-6.5625 5.25 -6.5625 5.25 -5 3 C-5.66 2.67 -6.32 2.34 -7 2 C-2.25 0 -2.25 0 0 0 Z " fill="#361D06" transform="translate(187,209)"/>
<path d="M0 0 C4.29 0.66 8.58 1.32 13 2 C13 2.33 13 2.66 13 3 C11.906875 3.309375 10.81375 3.61875 9.6875 3.9375 C7.44592006 4.58337897 5.2130649 5.2623117 3 6 C1 4 1 4 0 0 Z " fill="#322B2A" transform="translate(207,401)"/>
<path d="M0 0 C0.33 0.99 0.66 1.98 1 3 C-0.5625 5.0625 -0.5625 5.0625 -3 7 C-6.6875 6.875 -6.6875 6.875 -10 6 C-10.33 5.34 -10.66 4.68 -11 4 C-8.36 4.33 -5.72 4.66 -3 5 C-2.690625 4.360625 -2.38125 3.72125 -2.0625 3.0625 C-1 1 -1 1 0 0 Z " fill="#381F02" transform="translate(246,273)"/>
<path d="M0 0 C0.66 0 1.32 0 2 0 C2.33 0.99 2.66 1.98 3 3 C-0.16986168 4.58493084 -3.54032261 4.2940042 -7 4 C-9.5 3 -9.5 3 -11 2 C-10.071875 2.020625 -9.14375 2.04125 -8.1875 2.0625 C-4.97713989 2.15769604 -4.97713989 2.15769604 -2 1 C-1.34 1.33 -0.68 1.66 0 2 C0 1.34 0 0.68 0 0 Z " fill="#3A3333" transform="translate(247,291)"/>
<path d="M0 0 C0 0.66 0 1.32 0 2 C-0.66 2.66 -1.32 3.32 -2 4 C-2 4.66 -2 5.32 -2 6 C-4.375 5.6875 -4.375 5.6875 -7 5 C-7.66 4.01 -8.32 3.02 -9 2 C-2.25 0 -2.25 0 0 0 Z " fill="#3A250E" transform="translate(206,279)"/>
<path d="M0 0 C-0.33 0.99 -0.66 1.98 -1 3 C-2.70703125 3.765625 -2.70703125 3.765625 -4.8125 4.25 C-5.49957031 4.42015625 -6.18664062 4.5903125 -6.89453125 4.765625 C-9.19499821 5.02170666 -10.80629727 4.69015367 -13 4 C-11.2097939 3.32942113 -9.41778511 2.6636531 -7.625 2 C-6.62726563 1.62875 -5.62953125 1.2575 -4.6015625 0.875 C-2 0 -2 0 0 0 Z " fill="#4B2E07" transform="translate(285,249)"/>
<path d="M0 0 C2 3 2 3 2 7 C-3.94 6.01 -3.94 6.01 -10 5 C-10 4.67 -10 4.34 -10 4 C-6.7 4 -3.4 4 0 4 C0 2.68 0 1.36 0 0 Z " fill="#CFA348" transform="translate(331,242)"/>
<path d="M0 0 C10.55808656 0.77904328 10.55808656 0.77904328 15 3 C15 3.66 15 4.32 15 5 C13.24859857 4.54705135 11.49892656 4.08741252 9.75 3.625 C8.77546875 3.36976563 7.8009375 3.11453125 6.796875 2.8515625 C4.34162697 2.10401491 2.24382595 1.22876183 0 0 Z " fill="#492A06" transform="translate(269,181)"/>
<path d="M0 0 C0.33 0.66 0.66 1.32 1 2 C-0.98 4.97 -0.98 4.97 -3 8 C-4.32 7.67 -5.64 7.34 -7 7 C-4.69 4.69 -2.38 2.38 0 0 Z " fill="#D7A33B" transform="translate(196,200)"/>
<path d="M0 0 C0.556875 0.226875 1.11375 0.45375 1.6875 0.6875 C-1.2825 3.1625 -1.2825 3.1625 -4.3125 5.6875 C-4.3125 5.0275 -4.3125 4.3675 -4.3125 3.6875 C-5.3025 3.3575 -6.2925 3.0275 -7.3125 2.6875 C-2.88173077 -0.38942308 -2.88173077 -0.38942308 0 0 Z " fill="#311A0D" transform="translate(191.3125,203.3125)"/>
<path d="M0 0 C1.98 1.65 3.96 3.3 6 5 C3 7 3 7 1 7 C0.67 4.69 0.34 2.38 0 0 Z M-2 7 C1 8 1 8 1 8 Z " fill="#3B3232" transform="translate(182,383)"/>
<path d="M0 0 C0.66 0 1.32 0 2 0 C2.33 1.65 2.66 3.3 3 5 C4.32 5 5.64 5 7 5 C6.67 6.98 6.34 8.96 6 11 C2.90407165 7.4912812 1.25805377 4.50802601 0 0 Z " fill="#4D4444" transform="translate(407,333)"/>
<path d="M0 0 C-0.99 0.33 -1.98 0.66 -3 1 C-3.33 1.99 -3.66 2.98 -4 4 C-4.99 4.33 -5.98 4.66 -7 5 C-6.625 2.5625 -6.625 2.5625 -6 0 C-3.50907189 -1.24546405 -2.58919267 -0.7767578 0 0 Z " fill="#292220" transform="translate(267,276)"/>
<path d="M0 0 C2.94956528 1.36944102 5.52468811 2.87830409 8 5 C8 5.66 8 6.32 8 7 C7.34 7 6.68 7 6 7 C6 6.34 6 5.68 6 5 C3.69 4.34 1.38 3.68 -1 3 C-0.67 2.01 -0.34 1.02 0 0 Z " fill="#E7B144" transform="translate(294,192)"/>
<path d="M0 0 C3.01217112 0.64449607 5.51655836 1.65022182 8.25 3.0625 C8.95640625 3.42472656 9.6628125 3.78695312 10.390625 4.16015625 C10.92171875 4.43730469 11.4528125 4.71445313 12 5 C8.35839192 6.21386936 7.66834531 5.6674695 4.3125 4.0625 C3.10013672 3.49208984 3.10013672 3.49208984 1.86328125 2.91015625 C1.24839844 2.60980469 0.63351562 2.30945313 0 2 C0 1.34 0 0.68 0 0 Z " fill="#E1AF48" transform="translate(282,186)"/>
<path d="M0 0 C2 3 2 3 1.625 5.6875 C1.41875 6.450625 1.2125 7.21375 1 8 C-0.32 7.34 -1.64 6.68 -3 6 C-2.01 4.02 -1.02 2.04 0 0 Z " fill="#2F2626" transform="translate(411,376)"/>
<path d="M0 0 C1.79068573 2.6860286 2.66055791 4.6626589 3.625 7.6875 C3.88539063 8.49574219 4.14578125 9.30398437 4.4140625 10.13671875 C4.60742188 10.75160156 4.80078125 11.36648437 5 12 C4.34 11.67 3.68 11.34 3 11 C3 10.34 3 9.68 3 9 C2.34 9 1.68 9 1 9 C0.67 6.03 0.34 3.06 0 0 Z " fill="#CA9E40" transform="translate(326,227)"/>
<path d="M0 0 C3.68754757 0.49831724 5.60490662 1.10067643 8 4 C7.67 4.99 7.34 5.98 7 7 C5.83040013 6.02433888 4.66438823 5.044375 3.5 4.0625 C2.8503125 3.51722656 2.200625 2.97195313 1.53125 2.41015625 C1.0259375 1.94480469 0.520625 1.47945313 0 1 C0 0.67 0 0.34 0 0 Z " fill="#312B2A" transform="translate(400,325)"/>
<path d="M0 0 C0.66 0.33 1.32 0.66 2 1 C1.1875 2.9375 1.1875 2.9375 0 5 C-0.99 5.33 -1.98 5.66 -3 6 C-3.99 5.34 -4.98 4.68 -6 4 C-4.02 2.68 -2.04 1.36 0 0 Z " fill="#452A0C" transform="translate(270,254)"/>
<path d="M0 0 C0.66 0 1.32 0 2 0 C4.1519437 3.22791555 4.20086443 4.28400809 4 8 C3.731875 7.360625 3.46375 6.72125 3.1875 6.0625 C2.11332248 3.66868314 2.11332248 3.66868314 -1 3 C-0.67 2.01 -0.34 1.02 0 0 Z " fill="#F3B738" transform="translate(327,236)"/>
<path d="M0 0 C0.99 0 1.98 0 3 0 C3.66 1.32 4.32 2.64 5 4 C4.34 4.66 3.68 5.32 3 6 C2.34 6 1.68 6 1 6 C0.67 4.02 0.34 2.04 0 0 Z " fill="#2E2223" transform="translate(170,322)"/>
<path d="M0 0 C0.33 0 0.66 0 1 0 C0.67 3.63 0.34 7.26 0 11 C-2 8 -2 8 -1.6875 4.9375 C-1 2 -1 2 0 0 Z " fill="#3B1E04" transform="translate(169,245)"/>
<path d="M0 0 C0.66 0 1.32 0 2 0 C3.09658936 3.28976808 2.79953138 4.71303767 2 8 C0.68 6.35 -0.64 4.7 -2 3 C-1.34 3 -0.68 3 0 3 C0 2.01 0 1.02 0 0 Z " fill="#2F1D0D" transform="translate(317,206)"/>
<path d="M0 0 C2.875 0.25 2.875 0.25 6 1 C7.375 3.0625 7.375 3.0625 8 5 C7.236875 4.690625 6.47375 4.38125 5.6875 4.0625 C3.81210323 3.32106407 1.91315348 2.63771783 0 2 C0 1.34 0 0.68 0 0 Z " fill="#36302E" transform="translate(333,265)"/>
<path d="M0 0 C2.97 0 5.94 0 9 0 C7.72403685 2.55192629 6.62843884 2.99500868 4 4 C3.01 3.67 2.02 3.34 1 3 C1.33 2.34 1.66 1.68 2 1 C1.34 0.67 0.68 0.34 0 0 Z " fill="#F1B124" transform="translate(267,249)"/>
<path d="M0 0 C0.99 0.33 1.98 0.66 3 1 C-2.75 6 -2.75 6 -5 6 C-3.63016497 2.83884224 -3.0109362 2.0072908 0 0 Z " fill="#3C2303" transform="translate(201,194)"/>
</svg>
